<svg width="156" height="29" viewBox="0 0 156 29" fill="none" xmlns="http://www.w3.org/2000/svg">
<path fill-rule="evenodd" clip-rule="evenodd" d="M18.2084 8.57578C17.0367 7.79288 15.6592 7.375 14.25 7.375V0.25C17.0684 0.25 19.8235 1.08575 22.1669 2.65156C24.5103 4.21736 26.3367 6.44292 27.4153 9.04674C28.4938 11.6506 28.776 14.5158 28.2262 17.28C27.6764 20.0443 26.3192 22.5834 24.3263 24.5763C22.3334 26.5692 19.7943 27.9264 17.03 28.4762C14.2658 29.026 11.4006 28.7438 8.79674 27.6653C6.19291 26.5867 3.96736 24.7603 2.40156 22.4169C0.835748 20.0735 0 17.3184 0 14.5H7.125C7.125 15.9092 7.54288 17.2867 8.32578 18.4584C9.10867 19.6301 10.2215 20.5434 11.5234 21.0826C12.8253 21.6219 14.2579 21.763 15.64 21.4881C17.0221 21.2132 18.2917 20.5346 19.2882 19.5382C20.2846 18.5417 20.9632 17.2721 21.2381 15.89C21.513 14.5079 21.3719 13.0753 20.8326 11.7734C20.2934 10.4715 19.3801 9.35867 18.2084 8.57578Z" fill="white"/>
<path d="M51.9523 14.4591C51.9523 16.2457 51.6176 17.776 50.9483 19.0499C50.2844 20.3183 49.3776 21.2899 48.2278 21.9646C47.0835 22.6393 45.7854 22.9767 44.3334 22.9767C42.8814 22.9767 41.5805 22.6393 40.4308 21.9646C39.2865 21.2845 38.3797 20.3102 37.7104 19.0418C37.0464 17.7679 36.7145 16.2403 36.7145 14.4591C36.7145 12.6724 37.0464 11.1449 37.7104 9.87642C38.3797 8.60255 39.2865 7.62826 40.4308 6.95355C41.5805 6.27883 42.8814 5.94147 44.3334 5.94147C45.7854 5.94147 47.0835 6.27883 48.2278 6.95355C49.3776 7.62826 50.2844 8.60255 50.9483 9.87642C51.6176 11.1449 51.9523 12.6724 51.9523 14.4591ZM48.9322 14.4591C48.9322 13.2014 48.7352 12.1408 48.3412 11.2771C47.9526 10.4081 47.4128 9.75227 46.7219 9.30966C46.031 8.86164 45.2348 8.63764 44.3334 8.63764C43.432 8.63764 42.6358 8.86164 41.9449 9.30966C41.254 9.75227 40.7115 10.4081 40.3175 11.2771C39.9288 12.1408 39.7345 13.2014 39.7345 14.4591C39.7345 15.7168 39.9288 16.7801 40.3175 17.6491C40.7115 18.5128 41.254 19.1686 41.9449 19.6166C42.6358 20.0592 43.432 20.2805 44.3334 20.2805C45.2348 20.2805 46.031 20.0592 46.7219 19.6166C47.4128 19.1686 47.9526 18.5128 48.3412 17.6491C48.7352 16.7801 48.9322 15.7168 48.9322 14.4591ZM57.5936 15.4631V22.75H54.6626V10.3136H57.464V12.4268H57.6098C57.8959 11.7305 58.352 11.1773 58.9781 10.767C59.6096 10.3568 60.3896 10.1517 61.318 10.1517C62.1762 10.1517 62.9238 10.3352 63.5608 10.7023C64.2031 11.0693 64.6997 11.601 65.0505 12.2973C65.4068 12.9936 65.5822 13.8383 65.5768 14.8315V22.75H62.6459V15.2849C62.6459 14.4537 62.4299 13.8033 61.9981 13.3337C61.5717 12.8641 60.9807 12.6293 60.225 12.6293C59.7122 12.6293 59.2561 12.7426 58.8566 12.9693C58.4626 13.1906 58.1522 13.5118 57.9255 13.9328C57.7042 14.3538 57.5936 14.8639 57.5936 15.4631ZM74.062 22.9929C72.8152 22.9929 71.7383 22.7338 70.8315 22.2156C69.9301 21.692 69.2365 20.9526 68.7507 19.9972C68.2649 19.0364 68.022 17.9055 68.022 16.6047C68.022 15.3254 68.2649 14.2027 68.7507 13.2365C69.2419 12.2649 69.9274 11.5092 70.8072 10.9695C71.687 10.4243 72.7207 10.1517 73.9082 10.1517C74.6747 10.1517 75.398 10.2758 76.0781 10.5241C76.7636 10.767 77.3682 11.1449 77.8917 11.6577C78.4207 12.1705 78.8363 12.8236 79.1386 13.617C79.4409 14.4051 79.592 15.3443 79.592 16.4347V17.3334H69.3984V15.3578H76.7825C76.7771 14.7964 76.6557 14.2972 76.4182 13.8599C76.1807 13.4173 75.8487 13.0692 75.4223 12.8155C75.0013 12.5618 74.5101 12.4349 73.9487 12.4349C73.3495 12.4349 72.8233 12.5807 72.3699 12.8722C71.9165 13.1582 71.5629 13.5361 71.3092 14.0057C71.0609 14.4699 70.9341 14.98 70.9287 15.5359V17.2605C70.9287 17.9838 71.0609 18.6045 71.3254 19.1227C71.5899 19.6355 71.9596 20.0295 72.4346 20.3048C72.9096 20.5747 73.4656 20.7097 74.1025 20.7097C74.529 20.7097 74.9149 20.6503 75.2603 20.5315C75.6058 20.4074 75.9054 20.2266 76.1591 19.9891C76.4128 19.7516 76.6044 19.4574 76.7339 19.1065L79.4706 19.4142C79.2978 20.1375 78.9686 20.769 78.4828 21.3088C78.0024 21.8432 77.387 22.2588 76.6368 22.5557C75.8865 22.8472 75.0282 22.9929 74.062 22.9929ZM82.2011 22.75V6.16818H85.205V13.1879H92.8887V6.16818H95.9006V22.75H92.8887V15.706H85.205V22.75H82.2011ZM104.463 22.9929C103.248 22.9929 102.196 22.7257 101.305 22.1913C100.414 21.657 99.7235 20.9094 99.2323 19.9486C98.7465 18.9878 98.5036 17.8651 98.5036 16.5804C98.5036 15.2957 98.7465 14.1703 99.2323 13.2041C99.7235 12.2379 100.414 11.4876 101.305 10.9533C102.196 10.4189 103.248 10.1517 104.463 10.1517C105.677 10.1517 106.73 10.4189 107.62 10.9533C108.511 11.4876 109.199 12.2379 109.685 13.2041C110.176 14.1703 110.422 15.2957 110.422 16.5804C110.422 17.8651 110.176 18.9878 109.685 19.9486C109.199 20.9094 108.511 21.657 107.62 22.1913C106.73 22.7257 105.677 22.9929 104.463 22.9929ZM104.479 20.6449C105.137 20.6449 105.688 20.4641 106.131 20.1024C106.573 19.7354 106.903 19.2442 107.118 18.6288C107.34 18.0135 107.45 17.328 107.45 16.5723C107.45 15.8112 107.34 15.123 107.118 14.5077C106.903 13.8869 106.573 13.393 106.131 13.026C105.688 12.6589 105.137 12.4754 104.479 12.4754C103.804 12.4754 103.243 12.6589 102.795 13.026C102.352 13.393 102.02 13.8869 101.799 14.5077C101.583 15.123 101.475 15.8112 101.475 16.5723C101.475 17.328 101.583 18.0135 101.799 18.6288C102.02 19.2442 102.352 19.7354 102.795 20.1024C103.243 20.4641 103.804 20.6449 104.479 20.6449ZM120.836 17.5196V10.3136H123.767V22.75H120.925V20.5396H120.796C120.515 21.2359 120.053 21.8054 119.411 22.248C118.774 22.6906 117.989 22.9119 117.055 22.9119C116.24 22.9119 115.519 22.7311 114.893 22.3695C114.272 22.0024 113.787 21.4707 113.436 20.7744C113.085 20.0727 112.91 19.2253 112.91 18.2321V10.3136H115.84V17.7787C115.84 18.5668 116.056 19.1929 116.488 19.6571C116.92 20.1213 117.487 20.3534 118.188 20.3534C118.62 20.3534 119.039 20.2482 119.443 20.0376C119.848 19.8271 120.18 19.5141 120.439 19.0984C120.704 18.6774 120.836 18.1511 120.836 17.5196ZM136.61 13.6009L133.938 13.8923C133.863 13.6224 133.731 13.3687 133.542 13.1312C133.358 12.8937 133.11 12.7021 132.797 12.5564C132.484 12.4107 132.1 12.3378 131.647 12.3378C131.037 12.3378 130.524 12.47 130.109 12.7345C129.698 12.999 129.496 13.3418 129.501 13.7628C129.496 14.1244 129.628 14.4186 129.898 14.6453C130.173 14.872 130.627 15.0582 131.258 15.204L133.38 15.6574C134.556 15.9111 135.431 16.3132 136.003 16.8638C136.581 17.4143 136.872 18.1349 136.877 19.0256C136.872 19.8082 136.643 20.4991 136.189 21.0983C135.741 21.692 135.118 22.1562 134.319 22.4909C133.52 22.8256 132.602 22.9929 131.566 22.9929C130.044 22.9929 128.819 22.6744 127.89 22.0375C126.962 21.3952 126.409 20.5018 126.23 19.3575L129.089 19.0822C129.218 19.6436 129.493 20.0673 129.914 20.3534C130.335 20.6395 130.883 20.7825 131.558 20.7825C132.254 20.7825 132.813 20.6395 133.234 20.3534C133.66 20.0673 133.874 19.7138 133.874 19.2928C133.874 18.9365 133.736 18.6423 133.461 18.4102C133.191 18.1781 132.77 18 132.198 17.8759L130.076 17.4305C128.883 17.1822 128.001 16.7639 127.429 16.1756C126.857 15.5818 126.573 14.8315 126.579 13.9247C126.573 13.1582 126.781 12.4943 127.202 11.933C127.628 11.3662 128.219 10.929 128.975 10.6213C129.736 10.3082 130.613 10.1517 131.607 10.1517C133.064 10.1517 134.211 10.4621 135.048 11.0828C135.89 11.7035 136.411 12.5429 136.61 13.6009ZM144.8 22.9929C143.553 22.9929 142.476 22.7338 141.569 22.2156C140.668 21.692 139.974 20.9526 139.489 19.9972C139.003 19.0364 138.76 17.9055 138.76 16.6047C138.76 15.3254 139.003 14.2027 139.489 13.2365C139.98 12.2649 140.665 11.5092 141.545 10.9695C142.425 10.4243 143.459 10.1517 144.646 10.1517C145.413 10.1517 146.136 10.2758 146.816 10.5241C147.502 10.767 148.106 11.1449 148.63 11.6577C149.159 12.1705 149.574 12.8236 149.877 13.617C150.179 14.4051 150.33 15.3443 150.33 16.4347V17.3334H140.136V15.3578H147.52C147.515 14.7964 147.394 14.2972 147.156 13.8599C146.919 13.4173 146.587 13.0692 146.16 12.8155C145.739 12.5618 145.248 12.4349 144.687 12.4349C144.087 12.4349 143.561 12.5807 143.108 12.8722C142.654 13.1582 142.301 13.5361 142.047 14.0057C141.799 14.4699 141.672 14.98 141.667 15.5359V17.2605C141.667 17.9838 141.799 18.6045 142.063 19.1227C142.328 19.6355 142.698 20.0295 143.173 20.3048C143.648 20.5747 144.203 20.7097 144.84 20.7097C145.267 20.7097 145.653 20.6503 145.998 20.5315C146.344 20.4074 146.643 20.2266 146.897 19.9891C147.151 19.7516 147.342 19.4574 147.472 19.1065L150.208 19.4142C150.036 20.1375 149.706 20.769 149.221 21.3088C148.74 21.8432 148.125 22.2588 147.375 22.5557C146.624 22.8472 145.766 22.9929 144.8 22.9929Z" fill="white"/>
<path fill-rule="evenodd" clip-rule="evenodd" d="M6.69528 0.250004C6.69528 1.18567 6.5221 2.11218 6.18563 2.97663C5.84916 3.84107 5.35599 4.62652 4.73428 5.28814C4.11257 5.94976 3.37448 6.47458 2.56217 6.83265C1.74986 7.19071 0.879234 7.375 2.92657e-07 7.375L0 14.5C1.75847 14.5 3.49973 14.1314 5.12435 13.4153C6.74897 12.6992 8.22515 11.6495 9.46853 10.3262C10.712 9.00307 11.6983 7.43215 12.3713 5.70324C13.0442 3.97435 13.3906 2.12133 13.3906 0.25L6.69528 0.250004Z" fill="white"/>
</svg>
