<svg width="29" height="29" viewBox="0 0 29 29" fill="none" xmlns="http://www.w3.org/2000/svg">
<path fill-rule="evenodd" clip-rule="evenodd" d="M18.2084 8.57578C17.0367 7.79288 15.6592 7.375 14.25 7.375V0.25C17.0684 0.25 19.8235 1.08575 22.1669 2.65156C24.5103 4.21736 26.3367 6.44292 27.4153 9.04674C28.4938 11.6506 28.776 14.5158 28.2262 17.28C27.6764 20.0443 26.3192 22.5834 24.3263 24.5763C22.3334 26.5692 19.7943 27.9264 17.03 28.4762C14.2658 29.026 11.4006 28.7438 8.79674 27.6653C6.19291 26.5867 3.96736 24.7603 2.40156 22.4169C0.835748 20.0735 0 17.3184 0 14.5H7.125C7.125 15.9092 7.54288 17.2867 8.32578 18.4584C9.10867 19.6301 10.2215 20.5434 11.5234 21.0826C12.8253 21.6219 14.2579 21.763 15.64 21.4881C17.0221 21.2132 18.2917 20.5346 19.2882 19.5382C20.2846 18.5417 20.9632 17.2721 21.2381 15.89C21.513 14.5079 21.3719 13.0753 20.8326 11.7734C20.2934 10.4715 19.3801 9.35867 18.2084 8.57578Z" fill="white"/>
</svg>
